<svg width="14" height="14" viewBox="0 0 14 14" fill="none" xmlns="http://www.w3.org/2000/svg">
<path d="M8.72349 7.00016L13.5477 2.17594C13.7767 1.94739 13.9055 1.63725 13.9057 1.31374C13.906 0.990231 13.7778 0.67986 13.5492 0.450903C13.3207 0.221947 13.0105 0.09316 12.687 0.0928743C12.3635 0.0925886 12.0532 0.220827 11.8242 0.44938L6.99998 5.2736L2.17576 0.44938C1.9468 0.220423 1.63627 0.0917969 1.31248 0.0917969C0.988685 0.0917969 0.678153 0.220423 0.449197 0.44938C0.22024 0.678336 0.0916138 0.988868 0.0916138 1.31266C0.0916138 1.63645 0.22024 1.94699 0.449197 2.17594L5.27342 7.00016L0.449197 11.8244C0.22024 12.0533 0.0916138 12.3639 0.0916138 12.6877C0.0916138 13.0115 0.22024 13.322 0.449197 13.5509C0.678153 13.7799 0.988685 13.9085 1.31248 13.9085C1.63627 13.9085 1.9468 13.7799 2.17576 13.5509L6.99998 8.72672L11.8242 13.5509C12.0532 13.7799 12.3637 13.9085 12.6875 13.9085C13.0113 13.9085 13.3218 13.7799 13.5508 13.5509C13.7797 13.322 13.9083 13.0115 13.9083 12.6877C13.9083 12.3639 13.7797 12.0533 13.5508 11.8244L8.72349 7.00016Z" fill="#1A2130"/>
</svg>
