<svg width="30" height="24" viewBox="0 0 30 24" fill="none" xmlns="http://www.w3.org/2000/svg">
<path d="M30 6.912V19.125C30.0001 20.3702 29.5237 21.5682 28.6685 22.4733C27.8133 23.3785 26.6442 23.922 25.401 23.9925L25.125 24H4.875C3.62979 24.0001 2.43176 23.5237 1.52665 22.6685C0.62155 21.8133 0.077998 20.6442 0.00750017 19.401L0 19.125V6.912L14.478 14.496C14.6391 14.5804 14.8182 14.6244 15 14.6244C15.1818 14.6244 15.3609 14.5804 15.522 14.496L30 6.912ZM4.875 3.54076e-08H25.125C26.3334 -0.000145522 27.4987 0.448493 28.3951 1.2589C29.2914 2.06931 29.8548 3.18372 29.976 4.386L15 12.231L0.024 4.386C0.140285 3.23147 0.664575 2.15628 1.50262 1.35369C2.34068 0.551113 3.43752 0.0737805 4.596 0.00750021L4.875 3.54076e-08Z" fill="#1A2130"/>
</svg>
