<svg width="30" height="30" viewBox="0 0 30 30" fill="none" xmlns="http://www.w3.org/2000/svg">
<path d="M27.0606 20.458L22.8187 19.9736C22.3199 19.9151 21.8144 19.9703 21.34 20.1352C20.8656 20.3 20.4348 20.5703 20.0799 20.9256L17.007 23.9984C12.2661 21.5873 8.41269 17.7338 6.00154 12.9929L9.09109 9.90332C9.8092 9.1852 10.1599 8.18318 10.043 7.16446L9.5587 2.95597C9.46401 2.14128 9.07304 1.38987 8.46021 0.844786C7.84738 0.299705 7.0555 -0.000972388 6.23534 2.36258e-06H3.34619C1.45906 2.36258e-06 -0.110767 1.56984 0.00613481 3.45698C0.89125 17.7191 12.2975 29.1087 26.5429 29.9939C28.43 30.1108 29.9998 28.5409 29.9998 26.6538V23.7646C30.0165 22.0779 28.7473 20.6584 27.0606 20.458Z" fill="#1A2130"/>
</svg>
