<svg width="376" height="268" viewBox="0 0 376 268" fill="none" xmlns="http://www.w3.org/2000/svg">
<path d="M161.948 70.3368C161.768 71.9887 161.593 73.6361 161.483 75.2582C161.371 76.9163 161.327 78.5321 161.288 80.1421L161.284 80.1425C149.68 81.0881 137.947 82.0581 111.438 85.7757C86.3236 89.2977 47.9464 95.2861 8.76699 101.424V101.424C36.6935 94.5392 64.3663 87.795 89.0145 82.7463C115.688 77.2827 138.823 73.8041 161.944 70.3368H161.948ZM162.325 69.6113C162.309 69.6113 162.292 69.6125 162.276 69.615L162.276 69.6154L162.08 69.6444L162.08 69.6448C138.882 73.1232 115.664 76.6092 88.8811 82.0952C62.0239 87.5964 31.5816 95.1087 1.14807 102.619C0.975308 102.661 0.866811 102.832 0.901936 103.007C0.93359 103.164 1.07169 103.274 1.22733 103.274C1.24442 103.274 1.26174 103.272 1.27913 103.27C43.0448 96.7252 84.8012 90.1823 111.53 86.4338C138.253 82.6862 149.946 81.7331 161.64 80.7798C161.81 80.766 161.941 80.6266 161.945 80.4566C161.987 78.747 162.028 77.0457 162.146 75.3031C162.264 73.5566 162.459 71.7778 162.655 69.9797C162.667 69.8773 162.63 69.7754 162.555 69.704C162.493 69.6441 162.41 69.6113 162.325 69.6113Z" fill="#FEFEFE"/>
<path d="M180.587 1.49955L213.49 26.6795C213.559 26.7324 213.641 26.7583 213.723 26.7583C213.824 26.7583 213.924 26.7185 213.999 26.6409C214.134 26.5006 214.142 26.2813 214.018 26.1313L197.289 5.93727L270.821 15.7998L270.815 15.8002C274.417 16.6012 278.004 17.4005 284.318 23.001C290.547 28.5255 299.397 38.6936 308.33 48.9939V48.9943L213.08 43.6566V43.657L180.524 9.66105C180.451 9.5846 180.35 9.54301 180.247 9.54301C180.214 9.54301 180.179 9.54752 180.146 9.5568C164.126 13.9756 148.097 18.3968 120.953 25.5932C97.0865 31.9206 64.6093 40.3982 31.1003 49.1334V49.1338L180.587 1.49955ZM180.661 0.691406C180.622 0.691406 180.583 0.697351 180.545 0.709478L17.2367 52.7475C17.0391 52.8104 16.9276 53.0194 16.9853 53.2186C17.0336 53.3857 17.1863 53.4951 17.3527 53.4951C17.3847 53.4951 17.4171 53.491 17.4495 53.4826C55.7218 43.5075 94.0008 33.5307 121.149 26.3332C148.173 19.1685 164.176 14.7559 180.126 10.3565L180.13 10.3569L212.631 44.2951C212.698 44.3651 212.789 44.4071 212.886 44.4125L309.19 49.8089C309.197 49.8093 309.205 49.8095 309.212 49.8095C309.357 49.8095 309.491 49.7269 309.555 49.5953C309.623 49.4573 309.602 49.2921 309.501 49.1759C300.384 38.6632 291.24 28.1169 284.826 22.4283C278.375 16.706 274.656 15.87 270.958 15.0471L270.925 15.0414L196.421 5.04838C196.404 5.04609 196.387 5.04497 196.37 5.04497C196.232 5.04497 196.103 5.11942 196.035 5.24219C195.959 5.38003 195.975 5.5506 196.075 5.67197L211.274 24.0195L180.894 0.77021C180.826 0.718441 180.744 0.691406 180.661 0.691406Z" fill="#FEFEFE"/>
<path d="M214.203 48.0547L244.162 95.5952C244.232 95.7058 244.353 95.7732 244.484 95.7739L344.188 96.3457C344.189 96.3457 344.19 96.3457 344.19 96.3457C344.316 96.3457 344.433 96.2844 344.505 96.1813C344.577 96.0777 344.593 95.9453 344.548 95.8273L339.164 81.6239L346.132 82.9025L346.906 96.6309C346.912 96.7332 346.958 96.8289 347.035 96.8966L371.908 118.79V118.791L365.068 123.43C364.982 123.488 364.923 123.579 364.906 123.682L362.573 137.355C362.552 137.481 362.595 137.61 362.687 137.698C362.759 137.766 362.854 137.802 362.951 137.802C362.979 137.802 363.007 137.799 363.036 137.793L374.081 135.274L374.088 135.274C374.07 140.257 374.015 145.031 373.022 147.406C372.165 149.457 370.598 149.666 368.735 149.666C368.529 149.666 368.31 149.663 368.1 149.66L368.071 149.661L362.681 150.003C362.582 150.009 362.49 150.053 362.423 150.125L355.552 157.583V157.584L311.004 157.745V157.745C306.758 154.504 302.451 151.237 295.928 149.047C289.404 146.856 280.669 145.746 271.981 144.646L271.976 144.647L263.514 137.591C263.497 137.577 263.479 137.565 263.46 137.554C260.471 135.824 257.541 134.126 254.932 130.883C252.444 127.791 250.239 123.288 248.025 118.66L248.031 118.66L253.465 120.199L253.46 120.199C255.55 125.305 257.743 130.531 264.616 133.337C271.485 136.141 283.037 136.516 294.468 136.893C294.472 136.893 294.476 136.893 294.481 136.893C294.595 136.893 294.704 136.842 294.777 136.753C294.853 136.66 294.881 136.538 294.853 136.422L292.1 124.859C292.068 124.722 291.962 124.614 291.825 124.578C283.042 122.262 274.278 119.951 265.34 116.561C256.436 113.185 247.35 108.735 238.246 104.271L238.241 104.271L208.216 53.8611C208.147 53.7449 208.022 53.6742 207.887 53.6742C207.881 53.6742 207.874 53.6744 207.868 53.6747L184.471 54.8834C184.279 54.8933 184.124 55.044 184.109 55.2356C182.872 70.9263 181.608 86.796 185.466 95.5557C188.428 102.281 194.377 104.806 200.922 106.308V106.308C193.318 105.652 186.488 104.489 182.687 100.997C177.864 96.5663 177.847 88.2933 177.86 79.735L177.86 79.7354L179.137 50.6034V50.6038L214.203 48.0547ZM214.404 47.2734C214.395 47.2734 214.385 47.2738 214.376 47.2745L178.741 49.8645C178.548 49.8786 178.395 50.0355 178.387 50.2295L177.095 79.7015L177.095 79.7177C177.081 88.1412 177.04 96.8486 182.169 101.561C187.271 106.248 197.417 106.891 207.32 107.539C207.328 107.539 207.337 107.539 207.345 107.539C207.537 107.539 207.701 107.396 207.725 107.202C207.749 107 207.611 106.815 207.411 106.78C198.502 105.217 189.88 103.678 186.167 95.2471C182.434 86.7703 183.61 71.3127 184.846 55.6309L184.841 55.6313L207.677 54.4512V54.4516L237.64 104.757C237.678 104.821 237.733 104.872 237.8 104.905C246.934 109.383 256.089 113.872 265.069 117.277C273.976 120.655 282.707 122.965 291.415 125.261L291.409 125.261L293.992 136.111V136.112C282.665 135.737 271.518 135.327 264.906 132.628C258.278 129.922 256.213 124.904 254.097 119.735C254.052 119.626 253.96 119.544 253.847 119.511L247.418 117.691C247.384 117.681 247.349 117.676 247.314 117.676C247.203 117.676 247.095 117.725 247.022 117.812C246.925 117.927 246.904 118.088 246.969 118.224C249.292 123.089 251.642 128.016 254.335 131.363C257.041 134.725 260.083 136.484 263.066 138.21L263.061 138.211L271.571 145.305C271.627 145.352 271.695 145.382 271.768 145.391C280.521 146.499 289.218 147.601 295.684 149.773C302.129 151.937 306.364 155.166 310.643 158.432C310.71 158.483 310.791 158.511 310.875 158.511C310.876 158.511 310.876 158.511 310.877 158.511L355.722 158.348C355.828 158.348 355.93 158.303 356.002 158.225L362.882 150.757V150.757L368.104 150.426L368.11 150.426C368.314 150.429 368.529 150.431 368.735 150.431C370.642 150.431 372.675 150.22 373.728 147.702C374.829 145.071 374.838 139.857 374.855 134.794C374.855 134.677 374.802 134.566 374.711 134.493C374.643 134.439 374.558 134.409 374.472 134.409C374.444 134.409 374.415 134.413 374.387 134.419L363.424 136.919V136.919L365.633 123.972V123.972L372.747 119.146C372.845 119.08 372.906 118.972 372.914 118.854C372.921 118.735 372.873 118.62 372.785 118.542L347.661 96.4278L346.88 82.5588C346.87 82.3824 346.74 82.2357 346.566 82.2038L338.635 80.7484C338.612 80.7442 338.589 80.7421 338.566 80.7421C338.453 80.7421 338.345 80.7917 338.272 80.8798C338.183 80.9859 338.159 81.1314 338.208 81.2606L343.635 95.577V95.5774L244.698 95.0095V95.0099L214.728 47.4521C214.657 47.3404 214.535 47.2734 214.404 47.2734Z" fill="#FEFEFE"/>
<path d="M298.259 125.127V125.127L297.874 124.744L360.555 124.498C360.665 124.498 360.77 124.545 360.843 124.628C360.916 124.71 360.95 124.82 360.936 124.93C359.837 133.437 358.727 142.119 355.415 146.671C352.051 151.293 346.471 151.633 341.139 151.979L341.112 151.98L325.089 151.87L325.063 151.869C319.976 151.482 314.769 151.094 310.648 148.697C306.519 146.295 303.525 141.911 301.53 137.683C299.531 133.444 298.513 129.312 297.504 125.218L298.259 125.127ZM297.493 125.127C297.493 124.933 297.638 124.77 297.83 124.747C298.022 124.723 298.201 124.847 298.247 125.035C299.258 129.135 300.26 133.196 302.223 137.356C304.19 141.526 307.099 145.747 311.032 148.035C314.973 150.327 319.988 150.715 325.121 151.105L325.095 151.104L341.117 151.214L341.09 151.215C346.508 150.863 351.678 150.504 354.796 146.22C357.964 141.867 359.065 133.437 360.177 124.832L360.558 125.264L297.877 125.51C297.776 125.51 297.678 125.47 297.606 125.398C297.534 125.326 297.493 125.229 297.493 125.127V125.127Z" fill="#FEFEFE"/>
<path d="M258.769 180.641L267.35 173.53C267.42 173.472 267.509 173.441 267.6 173.442C285.021 173.683 302.452 173.924 317.301 173.924C327.764 173.924 336.948 173.804 343.957 173.481C360.899 172.701 365.111 170.736 369.321 168.786L369.499 169.516C357.554 170.035 345.598 170.555 335.039 170.555C325.878 170.555 317.747 170.164 311.576 169.035C303.93 167.637 299.307 165.108 294.902 162.7C291.641 160.917 288.515 159.209 284.35 158.043C277.435 156.108 267.631 155.662 256.925 155.662C252.445 155.662 247.814 155.74 243.181 155.818C242.988 155.821 242.823 155.68 242.796 155.488L242.11 150.607C242.094 150.498 242.127 150.388 242.198 150.305C242.27 150.221 242.374 150.172 242.484 150.171C247.917 150.106 253.35 150.041 258.601 150.041C270.055 150.041 280.656 150.35 288.454 151.653C299.861 153.559 305.265 157.591 310.627 161.593L310.397 161.517L355.434 161.478L355.166 161.587L363.475 153.456C363.53 153.402 363.6 153.366 363.675 153.353L373.91 151.534C374.022 151.514 374.137 151.545 374.224 151.618C374.311 151.691 374.361 151.799 374.36 151.913C374.31 161.331 374.271 170.942 371.594 175.691C369.398 179.586 365.479 180.206 361.418 180.206C360.378 180.206 359.322 180.166 358.271 180.125L358.269 180.125L358.288 180.125L259.018 181.318C258.856 181.32 258.71 181.22 258.654 181.068C258.598 180.915 258.644 180.744 258.769 180.641ZM259.257 181.23L259.009 180.553L358.279 179.36L358.298 179.36L358.3 179.36C359.353 179.401 360.397 179.441 361.418 179.441C365.446 179.441 368.954 178.814 370.927 175.315C373.481 170.786 373.544 161.444 373.595 151.909L374.044 152.288L363.809 154.106L364.01 154.003L355.702 162.134C355.63 162.204 355.534 162.243 355.434 162.243L310.398 162.283C310.315 162.283 310.235 162.256 310.169 162.207C304.842 158.231 299.556 154.284 288.327 152.408C280.6 151.117 270.057 150.807 258.601 150.807C253.353 150.807 247.929 150.872 242.493 150.937L242.868 150.501L243.554 155.382L243.168 155.052C247.802 154.974 252.436 154.896 256.925 154.896C267.625 154.896 277.527 155.339 284.556 157.306C288.815 158.498 292.011 160.246 295.27 162.028C299.659 164.429 304.193 166.907 311.713 168.282C317.813 169.398 325.889 169.789 335.039 169.789C345.578 169.789 357.516 169.27 369.465 168.751C369.648 168.743 369.811 168.865 369.854 169.043C369.897 169.221 369.809 169.404 369.643 169.481C365.326 171.48 361.013 173.462 343.992 174.246C336.964 174.57 327.768 174.689 317.301 174.689C302.444 174.689 285.01 174.448 267.589 174.207L267.839 174.119L259.257 181.23Z" fill="#FEFEFE"/>
<path d="M367.782 126.76V126.76L367.176 126.449L373.889 121.627C373.995 121.55 374.133 121.534 374.254 121.582C374.376 121.63 374.464 121.738 374.488 121.866L374.489 121.866L374.497 121.912L374.497 121.912C375.046 124.798 375.659 127.933 374.202 130.054C372.752 132.163 369.307 133.17 366.096 134.128C365.967 134.166 365.828 134.134 365.729 134.044C365.629 133.953 365.585 133.817 365.612 133.685L367.024 126.684C367.063 126.491 367.241 126.359 367.437 126.379C367.633 126.398 367.782 126.563 367.782 126.76ZM367.016 126.76L367.774 126.835L366.362 133.837L365.877 133.394C369.211 132.399 372.311 131.453 373.571 129.62C374.808 127.82 374.318 125.067 373.745 122.055L373.745 122.054L373.736 122.009L374.336 122.248L367.622 127.071C367.506 127.155 367.352 127.166 367.224 127.101C367.097 127.035 367.016 126.904 367.016 126.76V126.76Z" fill="#FEFEFE"/>
<path d="M288.651 133.221C280.248 132.695 271.736 132.168 266.639 130.084C261.463 127.969 259.795 124.256 258.177 120.673C258.118 120.541 258.138 120.387 258.229 120.275C258.32 120.162 258.466 120.111 258.608 120.142L288.204 126.601C288.367 126.636 288.488 126.773 288.504 126.939L289.056 132.803C289.066 132.914 289.028 133.025 288.95 133.105C288.872 133.186 288.763 133.228 288.651 133.221ZM288.699 132.457L288.294 132.875L287.741 127.01L288.041 127.349L258.445 120.89L258.875 120.358C260.49 123.935 262.055 127.384 266.928 129.376C271.88 131.4 280.235 131.927 288.699 132.457Z" fill="#FEFEFE"/>
<path d="M308.501 135.277V135.277L307.838 134.606L354.006 135.195C354.377 135.2 354.674 135.504 354.669 135.875C354.664 136.246 354.36 136.542 353.989 136.538L307.821 135.949C307.453 135.944 307.158 135.645 307.158 135.277V135.277C307.158 134.906 307.458 134.605 307.829 134.605C308.2 134.605 308.501 134.906 308.501 135.277Z" fill="#FEFEFE"/>
<path d="M313.435 142.668L351.864 143.02C352.234 143.023 352.532 143.326 352.529 143.697C352.525 144.068 352.222 144.366 351.851 144.362L313.423 144.011C313.052 144.007 312.754 143.704 312.758 143.333C312.761 142.962 313.064 142.665 313.435 142.668Z" fill="#FEFEFE"/>
<path d="M226.024 177.375C226.085 185.351 222.505 192.233 217.662 192.27C212.818 192.308 209.134 185.481 209.073 177.505C209.012 169.529 212.591 162.647 217.435 162.61C222.278 162.572 225.963 169.399 226.024 177.375ZM225.285 177.381C225.224 169.383 221.55 163.317 217.44 163.349C213.33 163.38 209.751 169.502 209.812 177.499C209.873 185.497 213.546 191.563 217.656 191.531C221.766 191.5 225.346 185.378 225.285 177.381Z" fill="#FEFEFE"/>
<path d="M167.625 189.538L206.654 191.827C206.756 191.833 206.849 191.885 206.907 191.968L210.508 197.123C210.579 197.224 210.588 197.355 210.532 197.465C210.476 197.574 210.364 197.644 210.242 197.646C126.424 199.042 42.8776 200.448 40.391 201.831C40.3486 201.854 40.5033 201.791 40.5003 201.604C40.4979 201.468 40.4105 201.4 40.4018 201.393C40.3942 201.388 40.3898 201.385 40.3901 201.385C42.9613 202.805 132.268 204.333 221.844 205.853L221.739 205.868C225.349 204.73 228.859 203.617 231.387 201.12C233.912 198.628 235.494 194.715 236.573 189.451C237.652 184.193 238.214 177.659 237.434 171.93C236.655 166.205 234.534 161.275 232.092 157.764C229.655 154.259 226.912 152.189 223.626 151.294C222.463 150.977 221.231 150.807 219.975 150.807C217.668 150.807 215.286 151.381 213.115 152.671C209.754 154.669 206.872 158.401 205.279 162.497C203.688 166.587 203.385 171.036 203.553 174.958C203.721 178.876 204.358 182.243 205 185.635C205.017 185.727 204.995 185.823 204.937 185.898C204.88 185.973 204.794 186.02 204.7 186.028C198.353 186.539 192.014 187.049 185.842 187.744C179.67 188.439 173.666 189.318 167.654 190.198L167.625 189.538ZM167.586 190.201C167.416 190.191 167.281 190.054 167.274 189.884C167.266 189.714 167.389 189.565 167.558 189.541C173.57 188.66 179.58 187.78 185.768 187.084C191.952 186.387 198.301 185.876 204.647 185.365L204.347 185.758C203.705 182.37 203.059 178.958 202.889 174.986C202.719 171.018 203.022 166.465 204.659 162.256C206.294 158.053 209.261 154.188 212.776 152.099C215.057 150.744 217.558 150.143 219.975 150.143C221.29 150.143 222.582 150.321 223.8 150.653C227.269 151.597 230.132 153.781 232.638 157.384C235.139 160.981 237.299 166.011 238.093 171.84C238.886 177.665 238.313 184.277 237.224 189.585C236.137 194.887 234.522 198.96 231.854 201.593C229.191 204.223 225.515 205.375 221.939 206.502C221.905 206.513 221.869 206.518 221.833 206.517C132.468 205.001 42.8329 203.493 40.0689 201.967C40.0464 201.955 40.0222 201.94 39.9982 201.921C39.9473 201.883 39.8387 201.783 39.8358 201.615C39.832 201.382 40.0277 201.272 40.0679 201.25C42.7485 199.759 126.625 198.374 210.231 196.981L209.964 197.504L206.363 192.349L206.616 192.49L167.586 190.201Z" fill="#FEFEFE"/>
<path d="M237.645 145.706L250.517 145.231L250.233 145.713C247.885 141.066 245.567 136.482 240.94 132.609C236.633 129.003 230.339 126.026 224.209 126.026C223.737 126.026 223.268 126.043 222.799 126.08C216.24 126.587 209.993 130.759 206.063 134.881C202.151 138.985 200.566 143.007 198.963 147.083L198.661 146.629L205.556 146.781L205.291 146.904C208.102 143.439 210.968 139.898 215.006 137.968C217.302 136.87 219.968 136.297 222.577 136.297C224.56 136.297 226.52 136.629 228.266 137.319C232.302 138.916 235.141 142.419 237.915 145.829L237.645 145.706ZM237.669 146.37C237.565 146.374 237.465 146.329 237.399 146.248C234.601 142.807 231.867 139.459 228.021 137.937C226.364 137.282 224.489 136.962 222.577 136.962C220.061 136.962 217.494 137.516 215.292 138.568C211.414 140.421 208.637 143.834 205.807 147.323C205.742 147.402 205.644 147.448 205.541 147.446L198.647 147.293C198.538 147.291 198.437 147.236 198.377 147.145C198.317 147.055 198.305 146.941 198.345 146.84C199.949 142.761 201.572 138.629 205.582 134.423C209.575 130.235 215.964 125.942 222.748 125.417C223.234 125.38 223.721 125.361 224.209 125.361C230.535 125.361 236.975 128.422 241.367 132.1C246.111 136.071 248.483 140.774 250.826 145.414C250.877 145.515 250.873 145.635 250.816 145.732C250.758 145.83 250.655 145.891 250.542 145.895L237.669 146.37Z" fill="#FEFEFE"/>
<path d="M198.928 134.62V134.62C198.928 134.708 198.893 134.793 198.831 134.855C198.768 134.918 198.683 134.953 198.595 134.952L179.777 134.864L180.102 134.454L183.047 146.669L182.727 146.415L192.67 146.522L192.368 146.709L198.297 134.475C198.365 134.335 198.52 134.261 198.67 134.296C198.821 134.33 198.928 134.465 198.928 134.62ZM198.264 134.62L198.895 134.764L192.966 146.999C192.91 147.115 192.792 147.187 192.663 147.186L182.72 147.079C182.568 147.078 182.436 146.973 182.401 146.825L179.456 134.609C179.432 134.51 179.455 134.405 179.518 134.325C179.582 134.245 179.679 134.199 179.781 134.199L198.598 134.288L198.264 134.62V134.62Z" fill="#FEFEFE"/>
<path d="M211.296 100.968L211.085 79.0574L211.369 79.383C207.779 78.8614 204.227 78.3462 201.714 78.3462C200.803 78.3462 200.051 78.4144 199.493 78.5649C197.582 79.0804 197.837 80.6151 198.231 82.6358C198.234 82.6538 198.236 82.6721 198.237 82.6905C198.41 89.1836 198.595 95.4719 200.802 98.409C202.259 100.349 204.654 100.852 207.488 100.852C208.807 100.852 210.197 100.743 211.603 100.633L211.296 100.968ZM211.961 100.961C211.962 101.136 211.829 101.282 211.654 101.296C210.254 101.405 208.838 101.516 207.488 101.516C204.615 101.516 201.929 101.016 200.27 98.8082C197.902 95.6568 197.743 89.0803 197.573 82.7082L197.579 82.7629C197.222 80.9359 196.727 78.6228 199.32 77.9233C199.961 77.7504 200.781 77.6816 201.714 77.6816C204.286 77.6816 207.894 78.2067 211.465 78.7254C211.627 78.7489 211.748 78.8872 211.749 79.051L211.961 100.961Z" fill="#FEFEFE"/>
<path d="M313.011 53.2083L338.628 90.3118C338.698 90.4137 338.706 90.5464 338.648 90.6559C338.59 90.7654 338.476 90.8336 338.352 90.8329L298.012 90.5768C297.903 90.5761 297.801 90.5218 297.74 90.4316L271.423 51.7889C271.352 51.6849 271.346 51.5499 271.407 51.4401C271.468 51.3302 271.586 51.2644 271.712 51.2698L312.752 53.0651C312.856 53.0697 312.952 53.1227 313.011 53.2083ZM312.464 53.5859L312.723 53.7291L271.683 51.9338L271.972 51.4148L298.289 90.0575L298.017 89.9123L338.356 90.1683L338.081 90.6894L312.464 53.5859Z" fill="#FEFEFE"/>
<path d="M261.612 51.4227L267.632 51.8355C267.738 51.8428 267.835 51.901 267.891 51.9918L289.783 87.2615C289.876 87.4114 289.836 87.608 289.691 87.7091C289.546 87.8102 289.348 87.7805 289.239 87.6414L261.328 51.9589C261.247 51.8556 261.234 51.7143 261.296 51.5984C261.357 51.4826 261.481 51.4137 261.612 51.4227ZM261.567 52.0857L261.851 51.5494L289.763 87.232L289.219 87.6119L267.327 52.3422L267.586 52.4985L261.567 52.0857Z" fill="#FEFEFE"/>
<path d="M343.576 202.86L343.636 202.809C346.581 200.313 349.475 197.848 351.53 194.844C353.599 191.819 354.827 188.234 356.07 184.596C356.117 184.459 356.247 184.368 356.392 184.371L362.499 184.516C362.607 184.519 362.708 184.574 362.768 184.664C362.828 184.755 362.84 184.868 362.801 184.969C361.146 189.209 359.471 193.511 357.315 196.43C355.144 199.37 352.498 200.899 350.173 201.831C347.85 202.763 345.832 203.104 343.848 203.441L343.853 203.44L343.852 203.44C343.704 203.468 343.556 203.392 343.491 203.256C343.426 203.12 343.461 202.957 343.576 202.86ZM344.006 203.367L343.73 202.787L343.731 202.786L343.737 202.785C345.722 202.449 347.677 202.116 349.926 201.214C352.175 200.312 354.704 198.847 356.781 196.035C358.872 193.203 360.516 188.996 362.182 184.728L362.483 185.181L356.377 185.036L356.699 184.811C355.461 188.432 354.207 192.107 352.079 195.219C349.964 198.31 346.997 200.831 344.066 203.316L344.006 203.367Z" fill="#FEFEFE"/>
<path d="M318.176 190.485L271.621 191.64L271.662 190.98L324.207 198.79L323.882 199.303L317.891 190.337L318.176 190.485ZM318.159 189.82C318.273 189.818 318.381 189.873 318.444 189.968L324.435 198.934C324.508 199.043 324.51 199.185 324.439 199.296C324.369 199.407 324.24 199.466 324.11 199.447L271.564 191.637C271.393 191.612 271.27 191.46 271.281 191.288C271.292 191.116 271.432 190.98 271.604 190.976L318.159 189.82Z" fill="#FEFEFE"/>
<path d="M179.194 27.3153L195.765 43.3394V43.3398L174.063 44.823C173.898 44.8343 173.767 44.965 173.755 45.1297C172.818 57.6297 171.88 70.142 172.334 87.0126C172.785 103.792 174.614 124.884 176.448 145.98L176.443 145.98L171.745 146.608V146.609C169.86 128.374 167.986 110.157 167.631 92.275C167.274 74.2836 168.455 56.6205 169.638 38.9459C169.645 38.8412 169.602 38.7394 169.522 38.6712C169.461 38.6192 169.385 38.5914 169.306 38.5914C169.282 38.5914 169.257 38.5941 169.233 38.5996L49.48 65.6531L179.194 27.3153ZM179.286 26.6094C179.255 26.6094 179.223 26.6138 179.192 26.623L39.5192 67.904C39.3472 67.9549 39.2466 68.1329 39.2918 68.3064C39.3306 68.4555 39.4651 68.555 39.6131 68.555C39.6374 68.555 39.662 68.5524 39.6866 68.5468L168.941 39.347L168.945 39.3474C167.773 56.8691 166.612 74.4147 166.967 92.2882C167.324 110.311 169.223 128.671 171.119 147.01V147.011L171.12 147.017L171.12 147.017C171.129 147.106 171.174 147.188 171.244 147.244C171.303 147.29 171.376 147.315 171.45 147.315C171.465 147.315 171.479 147.314 171.494 147.312L176.85 146.596C177.026 146.572 177.153 146.415 177.137 146.238C175.294 125.03 173.451 103.834 172.998 86.9948C172.549 70.2895 173.466 57.8691 174.396 45.4667L174.391 45.4671L196.556 43.9515C196.687 43.9426 196.8 43.8573 196.845 43.734C196.89 43.6107 196.859 43.4724 196.764 43.3811L179.517 26.7028C179.454 26.642 179.371 26.6094 179.286 26.6094Z" fill="#FEFEFE"/>
<path d="M201.868 154.238L201.868 154.239L201.867 154.241L201.865 154.243L201.866 154.243C200.83 156.326 199.81 158.379 199.18 160.51C198.55 162.643 198.307 164.865 198.06 167.122C198.041 167.296 197.891 167.425 197.717 167.418L102.681 163.547C102.506 163.54 102.366 163.398 102.362 163.224C102.357 163.049 102.489 162.9 102.664 162.884L201.54 153.759C201.66 153.748 201.777 153.803 201.845 153.902C201.913 154.002 201.922 154.13 201.868 154.238ZM201.273 153.942L201.601 154.421L102.725 163.546L102.708 162.883L197.744 166.754L197.4 167.05C197.645 164.803 197.893 162.522 198.543 160.322C199.192 158.125 200.239 156.02 201.271 153.947L201.271 153.946L201.272 153.944L201.273 153.941L201.273 153.942Z" fill="#FEFEFE"/>
<path d="M179.471 176.135L179.257 176.159C157.553 178.562 135.828 180.959 111.687 181.503C107.841 181.59 103.939 181.629 99.9807 181.629C79.0109 181.629 56.6003 180.518 34.1966 179.408C34.0224 179.399 33.8846 179.257 33.8808 179.083C33.8771 178.909 34.0087 178.761 34.1824 178.745C50.9454 177.19 67.7175 175.634 84.3704 174.66C97.9108 173.867 111.376 173.459 124.444 173.459C127.45 173.459 130.432 173.481 133.392 173.524C149.221 173.757 164.342 174.615 179.454 175.473C179.626 175.483 179.762 175.623 179.767 175.796C179.772 175.969 179.643 176.116 179.471 176.135ZM179.398 175.475L179.416 176.137C164.303 175.279 149.195 174.421 133.382 174.189C130.426 174.145 127.446 174.124 124.444 174.124C111.389 174.124 97.938 174.532 84.4092 175.323C67.7686 176.297 51.0098 177.851 34.2437 179.407L34.2295 178.744C56.637 179.855 79.0302 180.965 99.9807 180.965C103.934 180.965 107.831 180.925 111.672 180.839C135.78 180.296 157.477 177.901 179.183 175.499L179.398 175.475Z" fill="#FEFEFE"/>
<path d="M162.607 136.494L162.612 136.594C162.704 138.452 162.798 140.294 163.006 141.975L163.004 141.963L163.005 141.964L163.006 141.976C163.218 143.683 163.549 145.232 163.883 146.793L163.884 146.802L163.885 146.803C163.903 146.901 163.876 147.002 163.812 147.078C163.748 147.154 163.653 147.198 163.554 147.196L52.2469 145.778C52.0695 145.776 51.9251 145.635 51.9191 145.457C51.913 145.28 52.0474 145.129 52.2243 145.115L162.248 136.179C162.338 136.172 162.427 136.201 162.494 136.26C162.562 136.32 162.602 136.404 162.607 136.494ZM161.943 136.526L162.302 136.841L52.2781 145.777L52.2554 145.114L163.562 146.532L163.231 146.925L163.231 146.923L163.233 146.932C162.899 145.374 162.562 143.797 162.347 142.057L162.348 142.069L162.348 142.068L162.347 142.056C162.135 140.348 162.04 138.48 161.948 136.627L161.943 136.526Z" fill="#FEFEFE"/>
<path d="M160.359 102.618L160.359 102.612V102.614V102.616L160.359 102.622C160.306 105.334 160.254 108.025 160.382 110.338C160.51 112.648 160.819 114.58 161.13 116.53C161.144 116.621 161.12 116.714 161.063 116.787C161.006 116.86 160.921 116.906 160.828 116.913L30.4233 127.399C30.2473 127.413 30.0909 127.287 30.0674 127.112C30.0439 126.937 30.1615 126.774 30.3351 126.741L159.965 102.285C160.064 102.267 160.165 102.293 160.241 102.358C160.318 102.422 160.361 102.518 160.359 102.618ZM159.695 102.605L160.089 102.938L30.4583 127.394L30.3701 126.736L160.775 116.251L160.473 116.634C160.162 114.685 159.849 112.724 159.719 110.375C159.589 108.031 159.642 105.315 159.695 102.609L159.695 102.616V102.614V102.612L159.695 102.605Z" fill="#FEFEFE"/>
<path d="M292.238 100.558L300.6 105.508C300.727 105.584 300.789 105.734 300.752 105.877C300.715 106.02 300.588 106.122 300.441 106.126L300.437 106.127C296.387 106.253 292.331 106.38 288.299 106.38C284.028 106.38 279.779 106.238 275.585 105.802C267.432 104.956 259.5 103.003 251.594 101.057C251.43 101.017 251.323 100.861 251.343 100.694C251.364 100.527 251.506 100.402 251.674 100.402L292.07 100.512C292.129 100.512 292.187 100.528 292.238 100.558ZM291.899 101.13L292.068 101.176L251.672 101.067L251.752 100.412C259.666 102.36 267.554 104.301 275.654 105.141C279.818 105.573 284.042 105.715 288.299 105.715C292.319 105.715 296.364 105.589 300.417 105.462L300.42 105.462L300.261 106.08L291.899 101.13Z" fill="#FEFEFE"/>
<path d="M323.751 101.419V101.419L323.61 101.147L330.25 105.794L330.04 105.735C334.511 105.471 338.917 105.21 341.676 104.39C344.383 103.586 345.487 102.245 346.633 100.853L346.895 101.397L323.424 101.751L323.751 101.419ZM323.087 101.419C323.087 101.237 323.232 101.089 323.414 101.087L346.885 100.732C347.014 100.731 347.133 100.804 347.189 100.921C347.245 101.037 347.229 101.176 347.146 101.276C345.978 102.694 344.769 104.164 341.865 105.027C339.014 105.874 334.514 106.137 330.079 106.398C330.004 106.402 329.93 106.381 329.869 106.339L323.228 101.691C323.14 101.629 323.087 101.528 323.087 101.419V101.419Z" fill="#FEFEFE"/>
<path d="M272.345 51.791C272.28 51.791 272.219 51.8265 272.187 51.8842C272.153 51.9442 272.157 52.018 272.195 52.0748L298.041 90.0258C298.076 90.0764 298.132 90.1052 298.191 90.1052C298.195 90.1052 298.198 90.1051 298.202 90.1049L298.207 90.1053L337.717 90.356L337.718 90.3564C337.766 90.356 337.812 90.3371 337.846 90.3033C337.881 90.2692 337.9 90.2228 337.9 90.1745V90.1741C337.9 90.1372 337.889 90.1013 337.868 90.0709L312.707 53.6285C312.675 53.5817 312.623 53.5528 312.566 53.5503L272.353 51.7912C272.351 51.7911 272.348 51.791 272.345 51.791Z" fill="#FEFEFE"/>
<path d="M317.993 190.309V190.309C317.992 190.309 317.99 190.309 317.989 190.309L275.473 191.364C275.47 191.364 275.468 191.364 275.466 191.364C275.423 191.364 275.38 191.38 275.347 191.408L275.35 191.408C275.311 191.441 275.286 191.491 275.286 191.546L275.284 191.546C275.284 191.595 275.304 191.642 275.339 191.676C275.371 191.708 275.414 191.726 275.46 191.728L275.454 191.728L295.315 198.754L323.439 198.86C323.448 198.862 323.458 198.867 323.466 198.862C323.473 198.858 323.551 198.847 323.584 198.818C323.624 198.784 323.647 198.734 323.647 198.681C323.647 198.644 323.637 198.609 323.617 198.579L318.144 190.389C318.11 190.339 318.054 190.309 317.993 190.309Z" fill="#FEFEFE"/>
<path d="M356.62 184.994C356.599 184.994 356.58 185.008 356.573 185.027C355.361 188.575 354.117 192.153 352.038 195.193C350.137 197.972 347.543 200.291 344.903 202.542C344.887 202.556 344.882 202.577 344.889 202.597C344.896 202.616 344.915 202.629 344.935 202.629L344.928 202.629C344.93 202.629 344.932 202.629 344.934 202.629C344.938 202.629 344.942 202.629 344.946 202.628L344.945 202.628C346.532 202.342 348.143 201.984 349.944 201.262C352.199 200.358 354.736 198.888 356.82 196.066C358.84 193.331 360.442 189.319 362.045 185.215L362.039 185.215C362.055 185.206 362.065 185.19 362.065 185.171C362.064 185.144 362.043 185.123 362.017 185.122L356.627 184.994H356.62Z" fill="#FEFEFE"/>
<path d="M224.209 125.883C223.734 125.883 223.261 125.901 222.788 125.937C216.183 126.448 209.906 130.645 205.964 134.781C202.174 138.756 200.557 142.657 199.01 146.584C198.993 146.626 198.998 146.674 199.024 146.712C199.05 146.749 199.092 146.772 199.138 146.772L199.141 146.772L205.39 146.91C205.391 146.91 205.392 146.91 205.393 146.91C205.429 146.91 205.464 146.896 205.489 146.871C205.493 146.867 205.497 146.863 205.5 146.859L205.5 146.859C208.282 143.43 211.109 139.977 215.065 138.086C217.341 136.999 219.986 136.429 222.577 136.429C222.901 136.429 223.225 136.438 223.546 136.456C225.179 136.547 226.772 136.871 228.215 137.442C232.161 139.003 234.958 142.407 237.704 145.782C237.73 145.815 237.77 145.833 237.81 145.833C237.815 145.833 237.819 145.832 237.823 145.832L237.818 145.832L249.999 145.383L250.004 145.383L250.01 145.382C250.055 145.379 250.097 145.353 250.119 145.313C250.142 145.273 250.143 145.224 250.123 145.185L250.122 145.183L250.121 145.181C247.851 140.693 245.524 136.262 241.029 132.498C236.959 129.091 231.119 126.238 225.3 125.913L225.299 125.913L225.298 125.913L225.298 125.914C224.935 125.893 224.571 125.883 224.209 125.883Z" fill="#FEFEFE"/>
<path d="M180.202 134.732C180.16 134.732 180.12 134.752 180.094 134.785C180.067 134.818 180.058 134.861 180.068 134.902L182.853 146.454C182.868 146.517 182.923 146.559 182.986 146.559C182.989 146.559 182.992 146.559 182.994 146.559L182.999 146.56L192.458 146.661L192.46 146.661C192.496 146.661 192.531 146.647 192.557 146.622C192.568 146.61 192.577 146.598 192.584 146.583L192.584 146.584L198.191 135.014C198.2 134.995 198.205 134.975 198.205 134.954V134.954C198.205 134.878 198.143 134.817 198.068 134.816L180.202 134.732H180.202Z" fill="#FEFEFE"/>
<path d="M259.19 120.906C259.114 120.906 259.052 120.968 259.052 121.044C259.052 121.077 259.064 121.108 259.084 121.131L259.079 121.132C260.596 124.452 262.283 127.616 266.876 129.493C269.267 130.471 272.454 131.103 276.072 131.554C279.825 132.022 284.023 132.292 288.243 132.557C288.246 132.557 288.249 132.557 288.252 132.557C288.286 132.557 288.32 132.544 288.346 132.52C288.373 132.494 288.389 132.458 288.389 132.42V132.419L288.388 132.406L287.904 127.267L287.904 127.267C287.899 127.207 287.856 127.158 287.797 127.145L259.225 120.909L259.22 120.91C259.21 120.907 259.2 120.906 259.19 120.906Z" fill="#FEFEFE"/>
<path d="M262.31 52.1016C262.298 52.1016 262.287 52.1083 262.281 52.1191C262.275 52.1306 262.276 52.1446 262.284 52.1548L285.96 82.4213C285.966 82.4296 285.976 82.4339 285.986 82.4339C285.992 82.4339 285.999 82.432 286.004 82.428C286.019 82.418 286.023 82.3985 286.014 82.3836L267.444 52.4677L267.449 52.4845L267.419 52.4518L262.313 52.1016C262.312 52.1016 262.311 52.1016 262.31 52.1016Z" fill="#FEFEFE"/>
<path d="M31.1021 49.3208L31.1014 49.3215L31.1013 49.3208H31.1021ZM180.587 1.31445C180.568 1.31445 180.549 1.31736 180.53 1.32329L31.0502 48.9554C31.0422 48.9579 31.0345 48.961 31.0271 48.9644L31.0242 48.9648C30.9588 48.9936 30.9132 49.0592 30.9132 49.1354V49.1358C30.9132 49.1955 30.9417 49.2516 30.9898 49.2868C31.0223 49.3106 31.0611 49.323 31.1004 49.323C31.1187 49.323 31.1371 49.3203 31.155 49.3148L31.1542 49.3152C64.6626 40.5798 97.1338 32.1037 121.001 25.7761C148.147 18.5791 164.174 14.1585 180.196 9.73925C180.213 9.73451 180.23 9.7322 180.248 9.7322C180.3 9.7322 180.351 9.75348 180.389 9.79256L212.944 43.7885C212.98 43.8261 213.03 43.8462 213.08 43.8462L213.081 43.8466L308.319 49.1832C308.323 49.1834 308.326 49.1835 308.33 49.1835C308.377 49.1835 308.424 49.1652 308.458 49.1323C308.496 49.0969 308.517 49.0478 308.517 48.9963V48.9959C308.517 48.9509 308.501 48.9073 308.471 48.8733C299.541 38.5763 290.683 28.3988 284.443 22.863C278.123 17.2572 274.507 16.4317 270.897 15.6287L270.892 15.6291C270.877 15.6228 270.862 15.6185 270.846 15.6164L197.314 5.75384C197.306 5.75272 197.297 5.75218 197.289 5.75218C197.222 5.75218 197.159 5.78857 197.125 5.84859C197.088 5.91598 197.096 5.99938 197.145 6.05871L213.874 26.2528C213.937 26.3294 213.933 26.4415 213.864 26.5132C213.826 26.5529 213.775 26.5732 213.723 26.5732C213.681 26.5732 213.64 26.56 213.604 26.5329L180.701 1.35298C180.668 1.32767 180.628 1.31445 180.587 1.31445Z" fill="#FEFEFE"/>
<path d="M161.944 70.1582L161.916 70.1603C138.796 73.6275 115.656 77.1068 88.977 82.5715C64.3263 87.6207 36.6505 94.3656 8.72651 101.25C8.71712 101.252 8.70804 101.255 8.69935 101.259L8.69663 101.259C8.62813 101.287 8.57986 101.354 8.57986 101.432V101.433C8.57986 101.49 8.60642 101.545 8.65184 101.58C8.68458 101.606 8.72455 101.619 8.76671 101.619C8.77793 101.619 8.7893 101.618 8.80072 101.616L8.80026 101.617C47.9775 95.4792 86.3535 89.491 111.464 85.9695C137.968 82.2526 149.698 81.2829 161.299 80.3375L161.301 80.3373L161.305 80.337C161.4 80.3284 161.473 80.2502 161.475 80.1551C161.515 78.5432 161.558 76.9347 161.67 75.2794C161.779 73.6596 161.954 72.0196 162.134 70.3656C162.14 70.3128 162.123 70.26 162.087 70.2204C162.052 70.1808 162.001 70.1582 161.948 70.1582H161.944Z" fill="#FEFEFE"/>
<path d="M179.195 27.1289C179.177 27.1289 179.159 27.1314 179.141 27.1366L49.427 65.4744C49.3301 65.503 49.2735 65.6033 49.2989 65.701C49.3208 65.785 49.3965 65.841 49.4799 65.841C49.4936 65.841 49.5074 65.8395 49.5213 65.8364L169.274 38.7829C169.285 38.7805 169.295 38.7793 169.306 38.7793C169.341 38.7793 169.374 38.7915 169.401 38.8142C169.435 38.8439 169.454 38.8886 169.451 38.9342C168.269 56.6063 167.087 74.2798 167.444 92.2795C167.799 110.17 169.674 128.396 171.559 146.629C171.569 146.724 171.65 146.796 171.745 146.796C171.749 146.796 171.752 146.796 171.755 146.796C171.761 146.796 171.767 146.795 171.773 146.794L171.77 146.795L176.464 146.167L176.464 146.167L176.468 146.166L176.47 146.167C176.517 146.161 176.56 146.138 176.591 146.101C176.623 146.063 176.639 146.014 176.634 145.964C174.8 124.866 172.972 103.781 172.521 87.0084C172.067 70.1509 173.004 57.6483 173.941 45.151L173.941 45.1514L173.941 45.1459L173.941 45.1445C173.947 45.0725 174.004 45.0154 174.076 45.0105L195.778 43.5273C195.876 43.5206 195.952 43.439 195.952 43.3406V43.3402C195.952 43.2895 195.932 43.241 195.895 43.2057L179.325 27.1815C179.289 27.1473 179.242 27.1289 179.195 27.1289Z" fill="#FEFEFE"/>
<path d="M324.45 101.733L324.451 101.733L324.451 101.733L324.45 101.733ZM324.451 101.545C324.391 101.545 324.333 101.573 324.297 101.626C324.239 101.709 324.258 101.824 324.34 101.884L324.341 101.884C324.373 101.908 324.411 101.92 324.451 101.92L324.451 101.92C324.534 101.92 324.606 101.866 324.63 101.787C324.653 101.712 324.626 101.631 324.564 101.584L324.559 101.584L324.348 101.887L324.451 101.546L324.56 101.581L324.561 101.582C324.559 101.58 324.557 101.579 324.555 101.577L324.554 101.577C324.522 101.556 324.486 101.545 324.451 101.545ZM251.673 100.586L292.069 100.695C292.095 100.695 292.12 100.702 292.143 100.716L300.504 105.666C300.56 105.699 300.587 105.765 300.571 105.827C300.555 105.89 300.499 105.934 300.435 105.936L300.435 105.936L300.431 105.936L300.427 105.936L300.427 105.937C296.376 106.063 292.329 106.189 288.299 106.189C284.032 106.189 279.79 106.047 275.604 105.613C267.47 104.769 259.555 102.821 251.65 100.875L251.638 100.872C251.567 100.855 251.52 100.787 251.529 100.714L251.53 100.691L251.534 100.691C251.551 100.63 251.608 100.586 251.673 100.586H251.673ZM346.89 100.917C346.945 100.917 346.996 100.948 347.021 100.999C347.045 101.05 347.038 101.11 347.002 101.154L347.001 101.155C345.839 102.566 344.659 103.999 341.812 104.845C338.996 105.682 334.54 105.945 330.109 106.206L330.109 106.206L330.068 106.208L330.068 106.209C330.065 106.208 330.062 106.208 330.059 106.208C330.029 106.208 330 106.199 329.976 106.182L323.336 101.535C323.297 101.508 323.274 101.463 323.274 101.416V101.416C323.274 101.336 323.337 101.272 323.417 101.271L346.888 100.917L346.887 100.917C346.888 100.917 346.889 100.917 346.89 100.917ZM360.556 124.684C360.613 124.684 360.666 124.708 360.703 124.75C360.74 124.792 360.758 124.848 360.75 124.904L360.736 125.016L360.722 125.128C359.629 133.586 358.512 142.095 355.263 146.559C351.977 151.075 346.537 151.439 341.21 151.785L341.13 151.791L341.11 151.791L325.093 151.681L325.074 151.68L325.024 151.676L324.971 151.672C319.907 151.287 314.79 150.889 310.742 148.533C306.66 146.159 303.687 141.816 301.7 137.601C299.729 133.425 298.716 129.351 297.717 125.298L297.711 125.298C297.714 125.266 297.71 125.234 297.697 125.204C297.686 125.179 297.68 125.153 297.68 125.125V125.125C297.68 125.026 297.754 124.943 297.852 124.931C297.859 124.93 297.865 124.93 297.871 124.929L297.877 124.93C297.882 124.93 297.887 124.93 297.892 124.93C297.896 124.93 297.9 124.93 297.905 124.93L297.899 124.93L360.556 124.684H360.556ZM214.203 47.8633C214.198 47.8633 214.194 47.8634 214.189 47.8638L179.132 50.4122L179.128 50.4126C179.032 50.4164 178.954 50.4935 178.95 50.5909L177.673 79.7233C177.672 79.7402 177.674 79.7569 177.677 79.773L177.673 79.7734C177.659 88.2821 177.672 96.6394 182.561 101.131L182.561 101.131C186.416 104.673 193.313 105.836 200.906 106.491C200.912 106.491 200.917 106.491 200.922 106.491C200.969 106.491 201.014 106.474 201.049 106.442C201.087 106.407 201.109 106.357 201.109 106.304V106.304C201.109 106.217 201.049 106.141 200.964 106.121C194.435 104.623 188.563 102.117 185.638 95.476C181.814 86.7933 183.049 71.0449 184.286 55.3684L184.295 55.2461C184.303 55.1482 184.382 55.0711 184.48 55.0661L207.877 53.8574L207.877 53.8578C207.88 53.8572 207.884 53.8571 207.887 53.8571C207.956 53.8571 208.02 53.8932 208.055 53.9527L208.055 53.9531L238.08 104.363C238.107 104.407 238.15 104.438 238.198 104.449L238.193 104.45C247.286 108.907 256.37 113.355 265.274 116.732C274.223 120.125 282.995 122.438 291.778 124.754C291.848 124.773 291.901 124.828 291.918 124.898L294.671 136.461C294.685 136.52 294.671 136.583 294.632 136.63C294.595 136.676 294.539 136.702 294.481 136.702C294.478 136.702 294.476 136.702 294.474 136.702L294.427 136.7L294.427 136.701L294.394 136.699L294.361 136.698L294.361 136.699C282.951 136.322 271.495 135.938 264.687 133.159C257.918 130.396 255.74 125.27 253.657 120.183L253.651 120.183C253.646 120.105 253.593 120.037 253.516 120.015L248.082 118.476C248.065 118.472 248.048 118.469 248.031 118.469L248.026 118.47C247.961 118.469 247.902 118.502 247.867 118.557C247.833 118.611 247.829 118.679 247.857 118.737C250.068 123.36 252.282 127.884 254.786 130.996C257.42 134.269 260.378 135.982 263.367 137.712L263.367 137.712C263.376 137.717 263.386 137.724 263.394 137.731L271.856 144.786C271.89 144.814 271.932 144.83 271.976 144.83L271.973 144.83C280.662 145.929 289.369 147.037 295.868 149.22C302.359 151.4 306.645 154.649 310.89 157.89C310.924 157.915 310.964 157.928 311.004 157.928C311.008 157.928 311.012 157.928 311.016 157.928L311.011 157.928L355.553 157.767C355.607 157.767 355.656 157.743 355.69 157.706L355.69 157.706L362.561 150.248C362.595 150.211 362.642 150.188 362.692 150.185L368.079 149.844L368.099 149.843L368.105 149.844C368.312 149.846 368.531 149.848 368.735 149.848C370.609 149.848 372.29 149.639 373.195 147.474C374.206 145.056 374.257 140.232 374.275 135.271C374.275 135.172 374.198 135.089 374.099 135.083L374.093 135.083C374.089 135.083 374.085 135.083 374.081 135.083C374.067 135.083 374.053 135.084 374.04 135.087L362.994 137.606C362.98 137.609 362.965 137.611 362.95 137.611C362.905 137.611 362.861 137.595 362.826 137.566L362.82 137.567L362.816 137.557C362.769 137.512 362.747 137.447 362.758 137.382L365.09 123.709L365.09 123.71C365.099 123.657 365.129 123.61 365.173 123.58L372.013 118.941C372.064 118.906 372.095 118.848 372.095 118.786V118.786C372.095 118.732 372.072 118.681 372.031 118.646L347.159 96.7519C347.119 96.7173 347.096 96.6685 347.093 96.6161L346.319 82.8877C346.314 82.8015 346.251 82.7298 346.166 82.7142L339.198 81.4356C339.187 81.4335 339.176 81.4325 339.164 81.4325C339.109 81.4325 339.057 81.4567 339.021 81.4998C338.977 81.5517 338.965 81.6228 338.989 81.686L344.373 95.8894C344.396 95.9498 344.388 96.0172 344.351 96.0703L344.351 96.0707C344.315 96.1228 344.256 96.1537 344.192 96.1543L344.189 96.1547L244.485 95.5825C244.418 95.5821 244.356 95.5477 244.32 95.4912L214.361 47.9506C214.326 47.896 214.267 47.8633 214.203 47.8633Z" fill="#FEFEFE"/>
<path d="M258.6 150.625C253.494 150.625 248.225 150.686 242.937 150.75C242.934 150.75 242.931 150.75 242.928 150.75C242.924 150.75 242.919 150.75 242.914 150.75L242.909 150.751C242.809 150.758 242.732 150.844 242.736 150.945C242.737 150.972 242.744 150.999 242.756 151.022L242.751 151.023L243.321 155.079C243.334 155.172 243.414 155.24 243.506 155.24C243.511 155.24 243.515 155.24 243.519 155.239C243.52 155.239 243.52 155.239 243.52 155.239L243.515 155.24C248.031 155.163 252.552 155.089 256.925 155.089C267.626 155.089 277.504 155.533 284.506 157.492C288.737 158.676 291.913 160.412 295.169 162.192L295.18 162.198C299.573 164.6 304.129 167.091 311.68 168.472C317.797 169.591 325.886 169.982 335.039 169.982C345.582 169.982 357.526 169.463 369.473 168.943L369.473 168.944C369.477 168.943 369.479 168.943 369.482 168.943C369.572 168.943 369.651 169.005 369.672 169.093C369.694 169.183 369.649 169.277 369.564 169.316C365.274 171.303 360.985 173.282 343.983 174.065C336.959 174.388 327.768 174.507 317.301 174.507C302.486 174.507 285.117 174.268 267.743 174.028L267.743 174.029C267.739 174.028 267.734 174.028 267.73 174.028C267.686 174.028 267.644 174.043 267.611 174.071L259.972 180.401L259.975 180.402L259.975 180.402L259.97 180.403C259.911 180.453 259.888 180.535 259.915 180.609C259.94 180.679 260.005 180.728 260.08 180.732L260.074 180.733C260.08 180.733 260.085 180.733 260.091 180.733C260.095 180.733 260.099 180.733 260.104 180.732L260.098 180.733L358.278 179.552L358.293 179.553L358.344 179.555L358.344 179.555C359.379 179.594 360.409 179.633 361.418 179.633C365.454 179.633 369.062 179.008 371.09 175.412C373.633 170.903 373.728 161.723 373.779 152.376C373.78 152.277 373.702 152.194 373.603 152.188L373.597 152.188L373.553 152.19L363.893 153.907L363.894 153.908L363.887 153.909C363.853 153.915 363.821 153.932 363.795 153.958L355.571 162.006C355.534 162.041 355.485 162.062 355.434 162.062L310.398 162.101L310.398 162.101C310.355 162.101 310.314 162.087 310.281 162.062L310.279 162.061L310.276 162.059C304.942 158.077 299.627 154.112 288.358 152.229C280.613 150.935 270.056 150.625 258.6 150.625Z" fill="#FEFEFE"/>
<path d="M201.003 154.291L200.986 154.292L107.694 162.902L107.69 162.902C107.646 162.905 107.605 162.923 107.573 162.953L107.576 162.954C107.538 162.99 107.516 163.041 107.519 163.097C107.523 163.183 107.584 163.253 107.664 163.271L107.661 163.272C107.674 163.274 107.688 163.276 107.703 163.276C107.703 163.276 107.704 163.276 107.704 163.276L107.708 163.276L197.426 166.931C197.428 166.931 197.431 166.931 197.433 166.931C197.482 166.931 197.528 166.912 197.563 166.879C197.6 166.843 197.621 166.795 197.621 166.744H197.622C197.856 164.601 198.109 162.452 198.722 160.377C199.311 158.384 200.231 156.465 201.175 154.562C201.188 154.536 201.195 154.507 201.195 154.479V154.478C201.195 154.375 201.111 154.291 201.008 154.291H201.003Z" fill="#FEFEFE"/>
<path d="M159.683 102.832L159.648 102.835L36.5689 126.056C36.5499 126.059 36.5321 126.066 36.5159 126.074L36.5129 126.075C36.4531 126.106 36.4129 126.169 36.4129 126.24V126.24C36.4129 126.296 36.4378 126.349 36.4808 126.385C36.5146 126.413 36.5569 126.427 36.6001 126.427C36.6076 126.427 36.6151 126.427 36.6226 126.426L36.6196 126.426L160.428 116.471L160.43 116.471L160.434 116.471C160.486 116.466 160.533 116.44 160.565 116.399C160.597 116.358 160.61 116.306 160.602 116.255C160.311 114.425 160.028 112.571 159.906 110.38L159.906 110.38L159.906 110.369C159.783 108.152 159.824 105.593 159.874 103.023C159.875 102.973 159.856 102.924 159.821 102.888C159.785 102.852 159.737 102.832 159.687 102.832H159.683Z" fill="#FEFEFE"/>
<path d="M201.714 78.1582C200.797 78.1582 200.026 78.2265 199.445 78.3833C197.342 78.9505 197.664 80.7032 198.047 82.6707L198.047 82.6711C198.049 82.6786 198.05 82.6861 198.05 82.6948C198.222 89.1535 198.4 95.5231 200.652 98.5205C202.166 100.536 204.643 101.038 207.488 101.038C208.717 101.038 210.005 100.944 211.303 100.844L211.304 100.844L211.308 100.843C211.406 100.836 211.481 100.753 211.48 100.655L211.275 79.3479L211.279 79.3483C211.282 79.2527 211.213 79.1704 211.118 79.1566L211.116 79.1563C207.627 78.6496 204.178 78.1582 201.714 78.1582Z" fill="#FEFEFE"/>
<path d="M161.956 136.68L161.941 136.68L59.3308 145.014L59.3276 145.015C59.2814 145.017 59.2375 145.036 59.2045 145.068C59.1689 145.103 59.1489 145.151 59.1489 145.201V145.202C59.1489 145.254 59.1708 145.304 59.2093 145.339C59.2439 145.371 59.2892 145.389 59.336 145.389C59.339 145.389 59.3421 145.389 59.3451 145.389L59.3483 145.389L163.144 146.712C163.144 146.712 163.145 146.712 163.146 146.712C163.195 146.712 163.242 146.692 163.278 146.658C163.313 146.623 163.333 146.575 163.333 146.525V146.524L163.329 146.484L163.328 146.481L163.328 146.481C163.025 145.06 162.729 143.617 162.534 142.043L162.534 142.043C162.534 142.042 162.534 142.041 162.534 142.04L162.532 142.028C162.331 140.405 162.236 138.637 162.148 136.867L162.147 136.867C162.147 136.763 162.064 136.68 161.96 136.68H161.956Z" fill="#FEFEFE"/>
<path d="M124.444 174.029C111.386 174.029 97.9353 174.437 84.4039 175.229C69.3045 176.113 54.1035 177.475 38.8941 178.881C38.8461 178.886 38.8101 178.927 38.8123 178.975C38.8145 179.024 38.8542 179.061 38.9024 179.061L38.903 179.062L38.9127 179.062L38.913 179.062C59.7494 180.09 80.4887 181.051 99.9807 181.051C103.936 181.051 107.832 181.011 111.674 180.925C134.402 180.413 154.986 178.256 175.452 175.998L175.452 175.998L175.456 175.998C175.504 175.994 175.54 175.954 175.539 175.907C175.538 175.859 175.501 175.821 175.454 175.818L175.449 175.818L175.449 175.818C161.654 175.039 147.814 174.306 133.384 174.094C130.427 174.051 127.447 174.029 124.444 174.029Z" fill="#FEFEFE"/>
<path d="M217.474 162.669C222.244 162.669 225.908 169.424 225.969 177.38C226.03 185.357 222.45 192.183 217.662 192.22C217.653 192.219 217.631 192.22 217.623 192.22C212.853 192.22 209.189 185.465 209.128 177.509C209.067 169.531 212.647 162.706 217.435 162.669C217.444 162.669 217.465 162.669 217.474 162.669ZM219.975 150.758C217.659 150.758 215.267 151.334 213.087 152.629C209.713 154.635 206.824 158.378 205.227 162.483C203.632 166.583 203.329 171.041 203.498 174.966C203.666 178.889 204.304 182.26 204.945 185.651C204.96 185.729 204.941 185.808 204.894 185.87C204.846 185.933 204.774 185.972 204.696 185.979C198.348 186.49 192.01 187 185.836 187.695C180.763 188.266 175.808 188.961 170.865 189.68C170.836 189.684 170.816 189.71 170.818 189.739C170.82 189.768 170.844 189.79 170.873 189.79L170.876 189.79L206.651 191.888C206.736 191.893 206.814 191.936 206.862 192.006L210.463 197.161C210.522 197.245 210.529 197.354 210.483 197.446C210.436 197.537 210.343 197.595 210.241 197.596C130.93 198.918 51.8519 200.247 41.4743 201.559C41.4453 201.563 41.4241 201.588 41.426 201.617C41.4278 201.647 41.452 201.669 41.4812 201.669L41.4807 201.67C52.2698 203.025 136.906 204.473 221.79 205.914L221.791 205.914C221.799 205.914 221.807 205.912 221.815 205.908L221.816 205.908C225.402 204.778 228.901 203.66 231.427 201.166C233.963 198.662 235.548 194.735 236.628 189.468C237.707 184.206 238.27 177.665 237.489 171.929C236.709 166.195 234.585 161.257 232.138 157.738C229.694 154.225 226.942 152.145 223.641 151.246C222.473 150.929 221.236 150.758 219.975 150.758Z" fill="#FEFEFE"/>
<path d="M373.842 122.543L373.807 122.554L367.709 126.935L367.684 126.973L366.428 133.201L366.431 133.201L366.434 133.205L366.427 133.205C366.427 133.207 366.427 133.21 366.427 133.213L366.427 133.213C366.427 133.227 366.432 133.241 366.441 133.252C366.452 133.266 366.469 133.274 366.487 133.274L366.481 133.274C366.483 133.274 366.486 133.274 366.488 133.274C366.495 133.274 366.501 133.273 366.507 133.271L366.506 133.272C369.595 132.342 372.424 131.398 373.621 129.656C374.799 127.943 374.431 125.389 373.911 122.604L373.91 122.605C373.91 122.57 373.883 122.543 373.849 122.543H373.842Z" fill="#FEFEFE"/>
<path d="M54.7922 267.281C50.6428 267.281 47.5918 267.098 45.6391 266.732C43.6864 266.366 42.7101 265.939 42.7101 265.451L48.202 253.643C49.6054 253.887 52.5039 254.131 56.8975 254.376C61.291 254.559 66.9964 254.65 74.0138 254.65H81.2448C83.3806 254.65 84.8146 254.345 85.5468 253.735C86.2791 253.125 86.6452 252.24 86.6452 251.08V250.165C86.6452 248.701 86.2791 247.694 85.5468 247.145C84.8146 246.595 83.3806 246.321 81.2448 246.321H60.2841C54.121 246.321 49.636 245.192 46.829 242.934C44.022 240.615 42.6185 236.862 42.6185 231.676V228.381C42.6185 225.696 43.1067 223.224 44.083 220.967C45.1204 218.709 46.8595 216.909 49.3003 215.566C51.7412 214.163 55.0973 213.461 59.3688 213.461H89.7573C93.4795 213.461 96.5611 213.675 99.0019 214.102C101.504 214.529 102.755 214.986 102.755 215.475L100.009 226.825C98.3002 226.641 95.0661 226.458 90.3065 226.275C85.6078 226.031 79.6278 225.909 72.3663 225.909L65.776 225.818C63.8844 225.818 62.5419 226.092 61.7486 226.641C60.9554 227.13 60.5282 228.075 60.4672 229.479V230.12C60.4672 231.523 60.8943 232.499 61.7486 233.049C62.6029 233.598 63.9759 233.872 65.8675 233.872H86.0045C89.9098 233.872 93.2355 234.269 95.9814 235.062C98.7273 235.856 100.833 237.32 102.297 239.456C103.762 241.531 104.494 244.612 104.494 248.701V251.996C104.494 256.572 103.304 260.264 100.924 263.071C98.6053 265.878 94.5474 267.281 88.7504 267.281H54.7922Z" fill="white"/>
<path d="M128.557 267.281C124.53 267.281 121.509 266.702 119.496 265.542C117.482 264.383 116.14 262.796 115.468 260.783C114.858 258.708 114.553 256.328 114.553 253.643V239.822C114.553 237.259 114.889 234.971 115.56 232.957C116.231 230.882 117.543 229.265 119.496 228.106C121.509 226.886 124.53 226.275 128.557 226.275H154.003C158.03 226.275 161.02 226.886 162.973 228.106C164.987 229.265 166.299 230.882 166.909 232.957C167.58 234.971 167.916 237.259 167.916 239.822V253.643C167.916 256.328 167.58 258.708 166.909 260.783C166.299 262.796 164.987 264.383 162.973 265.542C161.02 266.702 158.03 267.281 154.003 267.281H128.557ZM135.88 255.748H146.772C149.701 255.748 151.135 254.528 151.074 252.087V241.47C151.074 240.249 150.738 239.334 150.067 238.724C149.457 238.113 148.359 237.808 146.772 237.808H135.971C134.385 237.808 133.256 238.113 132.585 238.724C131.913 239.334 131.578 240.249 131.578 241.47V252.087C131.517 254.528 132.951 255.748 135.88 255.748Z" fill="white"/>
<path d="M180.695 267.281V220.783L179.78 213.461H201.931L218.04 245.497L234.516 213.461H255.476V267.281H237.994V236.435H236.987L233.143 246.321L226.461 261.79H209.802L202.846 246.321L199.093 236.435H198.178V267.281H180.695Z" fill="white"/>
<path d="M281.957 267.281C276.587 267.281 272.743 266.275 270.424 264.261C268.105 262.247 266.946 258.891 266.946 254.192C266.946 249.86 268.136 246.717 270.515 244.765C272.956 242.812 276.77 241.836 281.957 241.836H284.794C288.212 241.836 291.476 241.958 294.588 242.202C297.7 242.446 300.385 242.69 302.643 242.934V241.47C302.643 240.615 302.46 239.791 302.094 238.998C301.728 238.205 300.446 237.808 298.25 237.808H293.673C287.022 237.808 281.896 237.93 278.296 238.174C274.695 238.357 272.468 238.541 271.614 238.724L270.607 229.021C270.607 228.411 271.675 227.923 273.811 227.557C275.946 227.13 278.875 226.825 282.598 226.641C286.32 226.397 290.561 226.275 295.321 226.275H304.474C308.501 226.275 311.583 226.886 313.718 228.106C315.854 229.265 317.319 230.852 318.112 232.866C318.905 234.879 319.302 237.198 319.302 239.822V267.281H306.304L302.735 265.451C301.27 265.756 298.921 266.153 295.687 266.641C292.514 267.068 288.852 267.281 284.703 267.281H281.957ZM287.266 256.481H299.897C301.24 256.481 302.033 256.359 302.277 256.115C302.521 255.871 302.643 255.108 302.643 253.826V250.623H287.266C286.106 250.623 285.252 250.836 284.703 251.263C284.154 251.691 283.879 252.514 283.879 253.735C283.879 254.894 284.154 255.657 284.703 256.023C285.252 256.328 286.106 256.481 287.266 256.481Z" fill="white"/>
<path d="M329.816 267.281V226.275H342.814L346.292 228.106C349.099 226.275 352.821 225.36 357.459 225.36C360.51 225.36 363.195 225.696 365.514 226.367C367.833 226.977 369.694 227.648 371.097 228.381C372.562 229.113 373.477 229.631 373.843 229.937L369.267 241.836C368.656 241.409 367.497 240.829 365.788 240.097C364.141 239.364 362.188 238.693 359.93 238.083C357.673 237.412 355.293 237.076 352.791 237.076H351.784C350.075 237.076 348.763 237.381 347.848 237.991C346.933 238.541 346.475 239.791 346.475 241.744V267.281H329.816Z" fill="white"/>
</svg>
