<svg width="18" height="18" viewBox="0 0 18 18" fill="none" xmlns="http://www.w3.org/2000/svg">
<g clip-path="url(#clip0_1136_20)">
<path fill-rule="evenodd" clip-rule="evenodd" d="M12.414 16.6006C11.334 16.5608 8.27325 16.1378 5.06775 12.9331C1.863 9.72758 1.44075 6.66758 1.40025 5.58683C1.34025 3.93983 2.60175 2.34008 4.059 1.71533C4.23448 1.63956 4.42665 1.61071 4.61665 1.63161C4.80664 1.65252 4.98794 1.72246 5.14275 1.83458C6.34275 2.70908 7.17075 4.03208 7.88175 5.07233C8.03819 5.30088 8.10508 5.57899 8.06967 5.85368C8.03426 6.12837 7.89903 6.38043 7.68975 6.56183L6.2265 7.64858C6.15581 7.69963 6.10604 7.7746 6.08646 7.85958C6.06687 7.94455 6.07879 8.03374 6.12 8.11058C6.4515 8.71283 7.041 9.60983 7.716 10.2848C8.391 10.9598 9.33075 11.5883 9.975 11.9573C10.0558 12.0027 10.1509 12.0154 10.2407 11.9928C10.3305 11.9702 10.4083 11.914 10.458 11.8358L11.4105 10.3861C11.5856 10.1535 11.8439 9.99763 12.1314 9.95122C12.4188 9.9048 12.7131 9.97141 12.9525 10.1371C14.0078 10.8676 15.2392 11.6813 16.1407 12.8356C16.262 12.9915 16.3391 13.1771 16.364 13.3731C16.389 13.569 16.3608 13.768 16.2825 13.9493C15.6547 15.4141 14.0663 16.6613 12.414 16.6006Z" fill="#EEEEEE"/>
</g>
<defs>
<clipPath id="clip0_1136_20">
<rect width="18" height="18" fill="white"/>
</clipPath>
</defs>
</svg>
