<svg width="14" height="14" viewBox="0 0 14 14" fill="none" xmlns="http://www.w3.org/2000/svg">
<path d="M11.7 2.27402C11.0888 1.65664 10.3608 1.16714 9.55843 0.834058C8.75606 0.50098 7.89541 0.330998 7.02667 0.334024C3.38667 0.334024 0.420002 3.30069 0.420002 6.94069C0.420002 8.10736 0.726669 9.24069 1.3 10.2407L0.366669 13.6674L3.86667 12.7474C4.83334 13.274 5.92 13.554 7.02667 13.554C10.6667 13.554 13.6333 10.5874 13.6333 6.94736C13.6333 5.18069 12.9467 3.52069 11.7 2.27402ZM7.02667 12.434C6.04 12.434 5.07334 12.1674 4.22667 11.6674L4.02667 11.5474L1.94667 12.094L2.5 10.0674L2.36667 9.86069C1.8185 8.98534 1.52743 7.97352 1.52667 6.94069C1.52667 3.91402 3.99333 1.44736 7.02 1.44736C8.48667 1.44736 9.86667 2.02069 10.9 3.06069C11.4117 3.57 11.8171 4.1758 12.0929 4.84297C12.3687 5.51015 12.5094 6.22543 12.5067 6.94736C12.52 9.97402 10.0533 12.434 7.02667 12.434ZM10.04 8.32736C9.87333 8.24736 9.06 7.84736 8.91333 7.78736C8.76 7.73402 8.65334 7.70736 8.54 7.86736C8.42667 8.03402 8.11333 8.40736 8.02 8.51402C7.92667 8.62736 7.82667 8.64069 7.66 8.55402C7.49333 8.47402 6.96 8.29402 6.33333 7.73402C5.84 7.29402 5.51333 6.75402 5.41333 6.58736C5.32 6.42069 5.4 6.33402 5.48667 6.24736C5.56 6.17402 5.65334 6.05402 5.73334 5.96069C5.81334 5.86736 5.84667 5.79402 5.9 5.68736C5.95334 5.57402 5.92667 5.48069 5.88667 5.40069C5.84667 5.32069 5.51333 4.50736 5.38 4.17402C5.24667 3.85402 5.10667 3.89402 5.00667 3.88736H4.68667C4.57333 3.88736 4.4 3.92736 4.24667 4.09402C4.1 4.26069 3.67334 4.66069 3.67334 5.47402C3.67334 6.28736 4.26667 7.07402 4.34667 7.18069C4.42667 7.29402 5.51333 8.96069 7.16667 9.67402C7.56 9.84736 7.86667 9.94736 8.10667 10.0207C8.5 10.1474 8.86 10.1274 9.14667 10.0874C9.46667 10.0407 10.1267 9.68736 10.26 9.30069C10.4 8.91402 10.4 8.58736 10.3533 8.51402C10.3067 8.44069 10.2067 8.40736 10.04 8.32736Z" fill="#1A2130"/>
</svg>
