<svg width="16" height="16" viewBox="0 0 16 16" fill="none" xmlns="http://www.w3.org/2000/svg">
<path d="M12.7 3.27402C12.0888 2.65664 11.3608 2.16714 10.5584 1.83406C9.75606 1.50098 8.89541 1.331 8.02667 1.33402C4.38667 1.33402 1.42 4.30069 1.42 7.94069C1.42 9.10736 1.72667 10.2407 2.3 11.2407L1.36667 14.6674L4.86667 13.7474C5.83334 14.274 6.92 14.554 8.02667 14.554C11.6667 14.554 14.6333 11.5874 14.6333 7.94736C14.6333 6.18069 13.9467 4.52069 12.7 3.27402ZM8.02667 13.434C7.04 13.434 6.07334 13.1674 5.22667 12.6674L5.02667 12.5474L2.94667 13.094L3.5 11.0674L3.36667 10.8607C2.8185 9.98534 2.52743 8.97352 2.52667 7.94069C2.52667 4.91402 4.99333 2.44736 8.02 2.44736C9.48667 2.44736 10.8667 3.02069 11.9 4.06069C12.4117 4.57 12.8171 5.1758 13.0929 5.84297C13.3687 6.51015 13.5094 7.22543 13.5067 7.94736C13.52 10.974 11.0533 13.434 8.02667 13.434ZM11.04 9.32736C10.8733 9.24736 10.06 8.84736 9.91333 8.78736C9.76 8.73402 9.65334 8.70736 9.54 8.86736C9.42667 9.03402 9.11333 9.40736 9.02 9.51402C8.92667 9.62736 8.82667 9.64069 8.66 9.55402C8.49333 9.47402 7.96 9.29402 7.33333 8.73402C6.84 8.29402 6.51333 7.75402 6.41333 7.58736C6.32 7.42069 6.4 7.33402 6.48667 7.24736C6.56 7.17402 6.65334 7.05402 6.73334 6.96069C6.81334 6.86736 6.84667 6.79402 6.9 6.68736C6.95334 6.57402 6.92667 6.48069 6.88667 6.40069C6.84667 6.32069 6.51333 5.50736 6.38 5.17402C6.24667 4.85402 6.10667 4.89402 6.00667 4.88736H5.68667C5.57333 4.88736 5.4 4.92736 5.24667 5.09402C5.1 5.26069 4.67334 5.66069 4.67334 6.47402C4.67334 7.28736 5.26667 8.07402 5.34667 8.18069C5.42667 8.29402 6.51333 9.96069 8.16667 10.674C8.56 10.8474 8.86667 10.9474 9.10667 11.0207C9.5 11.1474 9.86 11.1274 10.1467 11.0874C10.4667 11.0407 11.1267 10.6874 11.26 10.3007C11.4 9.91402 11.4 9.58736 11.3533 9.51402C11.3067 9.44069 11.2067 9.40736 11.04 9.32736Z" fill="#EEEEEE"/>
</svg>
