<svg width="30" height="30" viewBox="0 0 30 30" fill="none" xmlns="http://www.w3.org/2000/svg">
<path d="M25.6171 4.36134C24.2358 2.9729 22.5906 1.87218 20.7774 1.1234C18.9643 0.374618 17.0195 -0.00723902 15.0565 0.000103922C6.83136 0.000103922 0.128076 6.67133 0.120542 14.8613C0.120542 17.4844 0.809895 20.0363 2.11138 22.2957L0 30L7.91813 27.9338C10.1076 29.1229 12.5623 29.7451 15.0565 29.7431H15.064C23.2911 29.7431 29.9925 23.0719 30 14.8744C30.0017 12.9208 29.6151 10.9861 28.8626 9.18184C28.1101 7.37755 27.0083 5.73927 25.6171 4.36134ZM15.0565 27.2269C12.8324 27.2251 10.6496 26.6294 8.73556 25.5019L8.28352 25.2319L3.58614 26.4581L4.84053 21.8963L4.54671 21.4257C3.30325 19.4575 2.64562 17.1788 2.65005 14.8538C2.65005 8.05508 8.21949 2.50885 15.064 2.50885C16.6946 2.50593 18.3097 2.82436 19.8161 3.44576C21.3225 4.06717 22.6904 4.97926 23.841 6.12946C24.9954 7.27536 25.9106 8.63734 26.5338 10.1369C27.1571 11.6365 27.476 13.2441 27.4724 14.8669C27.4648 21.69 21.8954 27.2269 15.0565 27.2269ZM21.8653 17.9757C21.4942 17.79 19.6616 16.8919 19.3169 16.7644C18.9741 16.6425 18.7236 16.5788 18.4788 16.95C18.2283 17.3194 17.5126 18.1613 17.2978 18.4032C17.0831 18.6525 16.8609 18.6807 16.4879 18.4969C16.1169 18.3094 14.9134 17.9194 13.4895 16.65C12.3782 15.6657 11.6342 14.4469 11.412 14.0776C11.1973 13.7063 11.3913 13.5076 11.5777 13.3219C11.7416 13.1569 11.9488 12.8869 12.1352 12.6732C12.3236 12.4594 12.3857 12.3019 12.5082 12.0544C12.6306 11.8032 12.5722 11.5894 12.4799 11.4038C12.3857 11.2182 11.6418 9.38632 11.3272 8.64757C11.0259 7.9182 10.7189 8.01945 10.4891 8.01008C10.2744 7.99695 10.0239 7.99695 9.77335 7.99695C9.5842 8.00174 9.39808 8.04535 9.22664 8.12504C9.0552 8.20473 8.90212 8.31879 8.77699 8.46007C8.4342 8.83132 7.47551 9.72945 7.47551 11.5613C7.47551 13.3932 8.81278 15.1538 9.00113 15.4032C9.18571 15.6526 11.6267 19.4007 15.3729 21.0132C16.2582 21.3975 16.955 21.6244 17.4994 21.7969C18.394 22.0819 19.202 22.0388 19.8462 21.9469C20.5619 21.8382 22.0517 21.0469 22.3663 20.1788C22.6752 19.3088 22.6752 18.5663 22.581 18.4107C22.4887 18.2532 22.2382 18.1613 21.8653 17.9757Z" fill="#1A2130"/>
</svg>
