<svg width="16" height="16" viewBox="0 0 16 16" fill="none" xmlns="http://www.w3.org/2000/svg">
<path d="M12.7 3.27402C12.0888 2.65664 11.3608 2.16714 10.5584 1.83406C9.75609 1.50098 8.89544 1.331 8.0267 1.33402C4.3867 1.33402 1.42003 4.30069 1.42003 7.94069C1.42003 9.10736 1.7267 10.2407 2.30003 11.2407L1.3667 14.6674L4.8667 13.7474C5.83337 14.274 6.92003 14.554 8.0267 14.554C11.6667 14.554 14.6333 11.5874 14.6333 7.94736C14.6333 6.18069 13.9467 4.52069 12.7 3.27402ZM8.0267 13.434C7.04003 13.434 6.07337 13.1674 5.2267 12.6674L5.0267 12.5474L2.9467 13.094L3.50003 11.0674L3.3667 10.8607C2.81853 9.98534 2.52746 8.97352 2.5267 7.94069C2.5267 4.91402 4.99336 2.44736 8.02003 2.44736C9.4867 2.44736 10.8667 3.02069 11.9 4.06069C12.4117 4.57 12.8171 5.1758 13.0929 5.84297C13.3687 6.51015 13.5094 7.22543 13.5067 7.94736C13.52 10.974 11.0533 13.434 8.0267 13.434ZM11.04 9.32736C10.8733 9.24736 10.06 8.84736 9.91336 8.78736C9.76003 8.73402 9.65337 8.70736 9.54003 8.86736C9.4267 9.03402 9.11336 9.40736 9.02003 9.51402C8.9267 9.62736 8.8267 9.64069 8.66003 9.55402C8.49336 9.47402 7.96003 9.29402 7.33336 8.73402C6.84003 8.29402 6.51336 7.75402 6.41336 7.58736C6.32003 7.42069 6.40003 7.33402 6.4867 7.24736C6.56003 7.17402 6.65337 7.05402 6.73337 6.96069C6.81337 6.86736 6.8467 6.79402 6.90003 6.68736C6.95337 6.57402 6.9267 6.48069 6.8867 6.40069C6.8467 6.32069 6.51336 5.50736 6.38003 5.17402C6.2467 4.85402 6.1067 4.89402 6.0067 4.88736H5.6867C5.57336 4.88736 5.40003 4.92736 5.2467 5.09402C5.10003 5.26069 4.67337 5.66069 4.67337 6.47402C4.67337 7.28736 5.2667 8.07402 5.3467 8.18069C5.4267 8.29402 6.51336 9.96069 8.1667 10.674C8.56003 10.8474 8.8667 10.9474 9.1067 11.0207C9.50003 11.1474 9.86003 11.1274 10.1467 11.0874C10.4667 11.0407 11.1267 10.6874 11.26 10.3007C11.4 9.91402 11.4 9.58736 11.3533 9.51402C11.3067 9.44069 11.2067 9.40736 11.04 9.32736Z" fill="#282F3D"/>
</svg>
